<mxfile host="app.diagrams.net" agent="Mozilla/5.0 (Windows NT 10.0; Win64; x64) AppleWebKit/537.36 (KHTML, like Gecko) Chrome/138.0.0.0 Safari/537.36 Edg/138.0.0.0" version="28.0.7">
  <diagram name="Trang-1" id="hcBVMpRjV3OxtEfLuAx_">
    <mxGraphModel dx="1955" dy="652" grid="0" gridSize="10" guides="1" tooltips="1" connect="1" arrows="1" fold="1" page="0" pageScale="1" pageWidth="827" pageHeight="1169" math="0" shadow="0">
      <root>
        <mxCell id="0" />
        <mxCell id="1" parent="0" />
        <mxCell id="eKK3N9lMVBsKYANuo7Ul-3" value="" style="rounded=1;whiteSpace=wrap;html=1;dashed=1;dashPattern=8 8;" parent="1" vertex="1">
          <mxGeometry x="-66" y="236" width="920" height="370" as="geometry" />
        </mxCell>
        <mxCell id="eKK3N9lMVBsKYANuo7Ul-1" value="Webapp&lt;div&gt;(Reactjs)&lt;/div&gt;" style="rounded=1;whiteSpace=wrap;html=1;" parent="1" vertex="1">
          <mxGeometry x="131" y="23" width="120" height="60" as="geometry" />
        </mxCell>
        <mxCell id="eKK3N9lMVBsKYANuo7Ul-9" style="rounded=0;orthogonalLoop=1;jettySize=auto;html=1;" parent="1" source="eKK3N9lMVBsKYANuo7Ul-2" target="eKK3N9lMVBsKYANuo7Ul-8" edge="1">
          <mxGeometry relative="1" as="geometry" />
        </mxCell>
        <mxCell id="eKK3N9lMVBsKYANuo7Ul-14" style="rounded=0;orthogonalLoop=1;jettySize=auto;html=1;" parent="1" source="eKK3N9lMVBsKYANuo7Ul-2" target="eKK3N9lMVBsKYANuo7Ul-13" edge="1">
          <mxGeometry relative="1" as="geometry" />
        </mxCell>
        <mxCell id="eKK3N9lMVBsKYANuo7Ul-18" style="edgeStyle=orthogonalEdgeStyle;rounded=0;orthogonalLoop=1;jettySize=auto;html=1;curved=1;" parent="1" source="eKK3N9lMVBsKYANuo7Ul-2" target="eKK3N9lMVBsKYANuo7Ul-17" edge="1">
          <mxGeometry relative="1" as="geometry" />
        </mxCell>
        <mxCell id="eKK3N9lMVBsKYANuo7Ul-29" style="edgeStyle=orthogonalEdgeStyle;rounded=0;orthogonalLoop=1;jettySize=auto;html=1;curved=1;" parent="1" source="eKK3N9lMVBsKYANuo7Ul-2" target="eKK3N9lMVBsKYANuo7Ul-15" edge="1">
          <mxGeometry relative="1" as="geometry" />
        </mxCell>
        <mxCell id="eKK3N9lMVBsKYANuo7Ul-2" value="Api getway&lt;div&gt;(Spring cloud getway)&lt;/div&gt;" style="rounded=1;whiteSpace=wrap;html=1;" parent="1" vertex="1">
          <mxGeometry x="303" y="139" width="120" height="60" as="geometry" />
        </mxCell>
        <mxCell id="eKK3N9lMVBsKYANuo7Ul-5" value="" style="endArrow=classic;html=1;rounded=0;" parent="1" source="eKK3N9lMVBsKYANuo7Ul-1" target="eKK3N9lMVBsKYANuo7Ul-2" edge="1">
          <mxGeometry width="50" height="50" relative="1" as="geometry">
            <mxPoint x="407" y="342" as="sourcePoint" />
            <mxPoint x="457" y="292" as="targetPoint" />
          </mxGeometry>
        </mxCell>
        <mxCell id="eKK3N9lMVBsKYANuo7Ul-7" style="edgeStyle=orthogonalEdgeStyle;rounded=0;orthogonalLoop=1;jettySize=auto;html=1;jumpStyle=arc;endArrow=classic;endFill=1;entryX=0;entryY=0.25;entryDx=0;entryDy=0;exitX=0.25;exitY=0;exitDx=0;exitDy=0;startArrow=classic;startFill=1;" parent="1" source="eKK3N9lMVBsKYANuo7Ul-6" target="eKK3N9lMVBsKYANuo7Ul-2" edge="1">
          <mxGeometry relative="1" as="geometry">
            <mxPoint x="-146" y="216" as="sourcePoint" />
            <mxPoint x="119.00000000000023" y="99" as="targetPoint" />
          </mxGeometry>
        </mxCell>
        <mxCell id="eKK3N9lMVBsKYANuo7Ul-6" value="Identify service&lt;div&gt;(PostgreSQL)&lt;/div&gt;" style="rounded=1;whiteSpace=wrap;html=1;" parent="1" vertex="1">
          <mxGeometry x="-22" y="286" width="120" height="60" as="geometry" />
        </mxCell>
        <mxCell id="eKK3N9lMVBsKYANuo7Ul-23" style="rounded=0;orthogonalLoop=1;jettySize=auto;html=1;" parent="1" source="eKK3N9lMVBsKYANuo7Ul-8" target="eKK3N9lMVBsKYANuo7Ul-27" edge="1">
          <mxGeometry relative="1" as="geometry">
            <mxPoint x="269.2190999056884" y="382.00333333333333" as="targetPoint" />
          </mxGeometry>
        </mxCell>
        <mxCell id="eKK3N9lMVBsKYANuo7Ul-8" value="User service&lt;div&gt;(PostgreSQL)&lt;/div&gt;" style="rounded=1;whiteSpace=wrap;html=1;" parent="1" vertex="1">
          <mxGeometry x="166" y="289" width="120" height="60" as="geometry" />
        </mxCell>
        <mxCell id="eKK3N9lMVBsKYANuo7Ul-10" value="Problem service&lt;div&gt;(PostgreSQL)&lt;/div&gt;" style="rounded=1;whiteSpace=wrap;html=1;" parent="1" vertex="1">
          <mxGeometry x="354" y="291" width="120" height="60" as="geometry" />
        </mxCell>
        <mxCell id="eKK3N9lMVBsKYANuo7Ul-12" value="" style="endArrow=classic;html=1;rounded=0;" parent="1" source="eKK3N9lMVBsKYANuo7Ul-2" target="eKK3N9lMVBsKYANuo7Ul-10" edge="1">
          <mxGeometry width="50" height="50" relative="1" as="geometry">
            <mxPoint x="407" y="342" as="sourcePoint" />
            <mxPoint x="457" y="292" as="targetPoint" />
          </mxGeometry>
        </mxCell>
        <mxCell id="eKK3N9lMVBsKYANuo7Ul-24" style="rounded=0;orthogonalLoop=1;jettySize=auto;html=1;" parent="1" source="eKK3N9lMVBsKYANuo7Ul-13" target="eKK3N9lMVBsKYANuo7Ul-27" edge="1">
          <mxGeometry relative="1" as="geometry" />
        </mxCell>
        <mxCell id="eKK3N9lMVBsKYANuo7Ul-13" value="Submission service&lt;div&gt;(MongoDB)&lt;/div&gt;" style="rounded=1;whiteSpace=wrap;html=1;" parent="1" vertex="1">
          <mxGeometry x="544" y="291" width="120" height="60" as="geometry" />
        </mxCell>
        <mxCell id="eKK3N9lMVBsKYANuo7Ul-15" value="Search service&lt;div&gt;(Elastic search)&lt;/div&gt;" style="rounded=1;whiteSpace=wrap;html=1;" parent="1" vertex="1">
          <mxGeometry x="649" y="446" width="120" height="60" as="geometry" />
        </mxCell>
        <mxCell id="eKK3N9lMVBsKYANuo7Ul-17" value="Notification Service&lt;div&gt;(Postgre + JSONB)&lt;/div&gt;" style="rounded=1;whiteSpace=wrap;html=1;" parent="1" vertex="1">
          <mxGeometry x="65" y="461" width="120" height="60" as="geometry" />
        </mxCell>
        <mxCell id="eKK3N9lMVBsKYANuo7Ul-26" style="edgeStyle=orthogonalEdgeStyle;rounded=0;orthogonalLoop=1;jettySize=auto;html=1;curved=1;" parent="1" source="eKK3N9lMVBsKYANuo7Ul-20" target="eKK3N9lMVBsKYANuo7Ul-13" edge="1">
          <mxGeometry relative="1" as="geometry" />
        </mxCell>
        <mxCell id="eKK3N9lMVBsKYANuo7Ul-20" value="Judging service" style="rounded=1;whiteSpace=wrap;html=1;" parent="1" vertex="1">
          <mxGeometry x="275" y="461" width="120" height="60" as="geometry" />
        </mxCell>
        <mxCell id="eKK3N9lMVBsKYANuo7Ul-22" style="rounded=0;orthogonalLoop=1;jettySize=auto;html=1;" parent="1" source="eKK3N9lMVBsKYANuo7Ul-27" target="eKK3N9lMVBsKYANuo7Ul-17" edge="1">
          <mxGeometry relative="1" as="geometry">
            <mxPoint x="261.9966666666669" y="417.3656117141329" as="sourcePoint" />
          </mxGeometry>
        </mxCell>
        <mxCell id="eKK3N9lMVBsKYANuo7Ul-25" style="rounded=0;orthogonalLoop=1;jettySize=auto;html=1;" parent="1" source="eKK3N9lMVBsKYANuo7Ul-27" target="eKK3N9lMVBsKYANuo7Ul-20" edge="1">
          <mxGeometry relative="1" as="geometry" />
        </mxCell>
        <mxCell id="eKK3N9lMVBsKYANuo7Ul-27" value="" style="shape=image;verticalLabelPosition=bottom;labelBackgroundColor=default;verticalAlign=top;aspect=fixed;imageAspect=0;image=data:image/png,iVBORw0KGgoAAAANSUhEUgAAAFIAAABNCAYAAAA1rDPVAAAAAXNSR0IArs4c6QAAAARnQU1BAACxjwv8YQUAAAAJcEhZcwAADsMAAA7DAcdvqGQAABI1SURBVHhe7ZxZc2TJVcfPXWqTVJJamt48bmwCBw47/DDgMeEgeOXJPMH44/BNCL4AvJgInnjggQATY8YBjugZjO320ONehl7Ura22u/D7n7y3dEsqSaVudUuy+5ROZd5cTmb+8+TJvJlZirb/2kp7R69NceW+o9ekCwIyavBvB73TyHOitwzkb5cWNmlhINV8JU6YmlI49ikqmkKjxwKPuBRPY5o8jwg/ITrIjSyLxfhhly+mRqUlpHjL+jCHFqqB2ijg4iJwJHYAUr4Tb4q+slYMJ1akLaI6FkVti8oU8FsURJil5CFhfIgVBlgFZeQ5XpVVAZaTc4zwIWkGBI4JU2flPE+iDvEdKymjLAGVfE1+m7Tw8icqE8CM4JxKljSsbftRD38BQBMruy0reh2ltBSgU1qbKn1eWjYakm9k4Ey0euFokfvD3CZZae1OBIAx2NIRrR6ApWgioJE3j3NrF2PrFoWVcRcQuxZPMkvH+8jfc8ibmkHfvDVaCEgN0wKNKqVRUIG7VfTsRa6GJoRnNmbMjyNAJlbD38ZjW0Iz15aX8Q+tl+/aejIhbjILJGBriFratgmdtUM0UFmW9ACvY1nUggEyoQ4MhxZApllmWYEWo4nLlLlqe7ZUvCBuF92loyq6dEBK57JYDWo7mBPrWfeb37c+bHEvDM8UMHAMW6Yclo+RjnewZ3v3/tuG9z6x7s4X1i6Hc4Ck+WjYS7IMk1Xb+NaH1v/GB2ZLG6StzQHyJY8RYWXmwOc7O/by009s9/OfWnf40Pq2gyTiK7p8QFIhDa8xQGZRl2G9ast//APbgC1ehZfMWnCsRisHjckBrIDRop1f/pft//vf2dLT/2RY7rrMJkkjJ0Vqe8WSTVbu2OqHf2797/yZWVdAtkgBiC5bWiigAFKdFYH8o0/t6b/8vY0+/4ltxDuYE1T6AqhpUk6hnB4eoUATgI3RIGkiICY3APF93K9WLP/tEB6/B28yRFdtRAcUxxQnBU2wu6nPEinp1CnrBG7CyBBHyItuEn4LxlVcvEZYlzphXlC/UzXiDdJCQErJZB1bTCytcsyztEKhTC5xn0atWJ6kNkbamAbJbvpwTwjAkTnzZQs55lOJXKaOIseVZLTQO2olyMctohX0cAWz0me2XmVkrABem7xMTDI+PuldHC0GJI3TssfXj4KDgFK2EPDKpE0jg4kXUGItWSaE5UrjrQN4JoUZ2zhDkhnSlEoj44ZtLFneFIAlVudkBOfqKLqV+R0GcJ4dyGkNLoYW1shEQKqtqJcapUVyyfRcsiQRykyqrrW1wIMFOQOayUHLpui4xZ0AIuOYddOknbMOpTAWrgJV5biu4Y8J8/4jLEbVI2k+fhWKtYEBdeqfZa/KGyQVsThphcwSxRe/AlKaybpQAGnBrmVPEKha17UPi6djQawoiCYl2JQShlzJnnYIZUkXsc5elifxTIq/eDobkG+QNEAjOkfsasdyR3rnYdI0T1Ox+uTkfnnrdGmARLcrH373KgSN5KHUu+M84BRW8wXTpQFSYLg2onMBSPmvDl0ejWzY0KCdfEsbWda4y0dD2of1JaTLo5FQsIQ1UrMa6SDW/oqbdPj5bdOlAvIq0+8MkDK/89aXi/JpKq8kV4d+N22kVCB0Y70WPC86vI5s2s+LojcCpBrVbJgD+RpNFVD+JlM9OzGbW8brac6srh1zrTUvkM4dSDVWQmPA07vJlF4Bx7kA1iTctGSaLo8ult6sjayHtvMrINmkQ+M5rCyrsGqdeZF0fkBWbartVYBN4sMuTeRT3xkIAcEkJEiRbiugKqRy3gr5xgh1P6W889fIqpECwDdoKUI76hmcH8OKm/hJYYq/RZjyadM2bNzW3SKt0wZxXm0Whx2olPRdy2wJ7sHyz2Mdk0g+bOQ5wpRLmppDnh5v+2nVnpPpfIFUgRV7L1KhybiwF7v7tjUe2y5DcAebdpTNdmnISxDa0zl10id/D25N5akhAk678ANAzFsd7GdiRdk1W71jxfJXbS++Bm/Y/pQ3bRi/Z6Nkw8atNZt0VizrLlveW7ait9LgvhXddSs6m1a2N81aGzYhz365buNimfJblMWoULuOofMFsqLQ+DAkoqRt7dUNK1Zu2/PWbXuW3rHnR/h922rftq3WTduya7Y7bts406679j4RWDVAjo69dLw1IbZIEhtFPXu8m9gXwyV7kt6e4f9LbtmX8U17bDfsQfGefTHZsC9G1+z+cN0+H641WM/iVeL79iDr25NyzbbTdRulfdficNB8PC10iiht0OyprdW9ZMmetm/a0p/80G5874dWAkIc9YnRWAvpRYUjkFkc79j+y/s2ePJrS/a3LdVOeUjSoIJ0hY3IspduWP/2B7a88XVk6JaGyuYryi1XGh05UJZg7pQDS8dPbPzl/9hk6xGdVh9nVCX46YN2kzAKfowr5k9JSKPOruvikxVlJOWYOo6p+sjG219a8eiutbZ+Ycn4JdmzOXUPdL5ANqhQnYuJxemACmwTUuLvyJlDOlogQyF969rQ1gCrZW3sZjh1UCPRQCrhtpaBpGONJNs3Gz0j617Ij4aGlUKTq0GncPKGMDmVv66PPyLDANEGZsMXlj34zAZ3/8mGv/g3aw+fW08nwko7h85naEt6zSIa74+qLFoVMzziZI3wZZ5l/yq21cDROs/XsAQ3LPMj2A6YzHaMJEaYCl2D0RSk2DjpWty7YYZ9tN7vmXVw23cqlv997N3twOktMl2HJV9HuddgynXG9GACsuQO/DVMBrKWvmbpxu9jY5dtiCYmLR2veEXm0rkAqU4Np39CUG4I9yU5hhoLzpPuBTExyGWWnWHCS90jUjzA62qWjmU1CkKPwHxpKOr+URjuBPmEJnkrcJ/8K/ASLFkVI/egLPmbz8pL3cRMXEz/jCJmbzq5sHU0vw+r3uq2E1CEzgxkGCHT1jVILXOj5D3nTDo/vAcauX7txK+eEOnnMiSvxPgBGvYgxRykOcww11WBcPxLonrI1sWEogIR7DfUkDfLZYML54KO9kM7/DVLAXTZK2VUt8QZK9esw0jvUac2zFqWdZdPoMeQmnK+VLW35rDWE5hi/AQfQB7SONfEcsjv9vj8rLmy+pDYJ4kmV4QiBZYfBp4p61tumO1lY5m0oowwMeBSP61zg82EGvJ9cIl5bFZxHp0OJBJqhQhKcZrIKgmSpSV+/j1j5PnjUQpZhQSPAnQ4LtuYYNXlEhZpDEsWfKAQaqk0qVqghyfEoNX45NastDWQmkaAkW8mQUKk7ergsVYCmr00isXyo6lRRLqYmdrrMO36uaQWnhOpleJQ+Vcj8h/0mIfU0g5CKqoC1DxBU6dRgw5YVlofvWXJzgXWokdpBbVgV37d4tCN4NBZkqrVat1FJ4MoOjOQXglU6rBiqhhVKrAqRDWdPdorqLlB7unVOiBld4WANcxCTiTwIFlqqliUEJBQyAxXMGq66+GyqCKE1YMuavkrbFXBeaQCnd8AkMeTKlRXSoWeXPDx1JRTE7JkO2vYvHEHHSI9020grTBN1/q0oK5Za9mCN2aiWrBfuwFwv5MJSyuD9h4t9Sx0jkC+LqkZdXNqf109aSBc2Utx0GxeFIsdsH3ODPsc9wWBL49yRhwLdxuRNgNcbQYjKnSEuqLmV6e6ppebZB9YNpVwuPCa+AwcMWF0bd86o0cWP7tr9vgnZo8+huXWzPPj/zDbIn77V7yxPAYz3oT8Qqq0WBotWa8H5OmviGoDjpRBxe2nK/a0c8t6H/6VXf/wI39FjGIWw1onuqiGOKmNa1egpl2djWnSIRmQytUber0oEmmjK823bOvhXbv/s3+2wf9+YivDJ35Z/zBpa27S3bRy7et281t/al/59vet5I0oc1upyUgl6KO1IvWSGdHN4uef2rMf/62NP/sHWy+3sblKN5+uhkZWNAuvpjXtGO7b8vBLWxs8tOvFI7tePpjLa+P7luzeY3ijkcW+7wMclvg6dAmBVJ/7GJiydEX6HmZesa6YAiQL93Y+sP5k11byfetlDPWsOMK9bGIbxZ5tYifbg5fYU2mWXkQrPWR2P+mtZRG6MhqpIad3bF14FetZM4ZeJTsM51bOUC+1Daafp8xyi1fPbj6CB5gDGQearSWcfMiRLAHxOlBeGSCnpNYGFOsH+FUo5H0dCU26ekA6VWp0ieiKAnn56GoA+QaVrzYSU2acT1dteOqFuzZgTpqPru7Qdn4dCmhpm0+7TL7dR0iQqjjWCQqr2cOPpys8tGkadnKctGyXl4T9pG+DaNV/3neU+zaMV2yYLFmmLTq3r9KzQPWTWP5aI6eauQCdDiSSpd7i8MiHJUW4IF/5PUGIfysEEECoUwkbrmzYw6Ubdi9ft98M+/ZwcJQVfm+wZA/zZdvTO5E2MfWDqEalm3gFPzO673KJ5T8Z0TOdIkrV99JlP0Xsffcju/G9j6xIv8KSTAdYdU83xB3q0mZdZmNOoZka8qDfQ5Y7+Ido0cCePf6V5b/5tW2MgIlFejhmlfRQH989b6c27ixZcusPrXfrO7xyrpG3TarwiqiP3pX00b5QVAz8FfHpj//GRtUrYlqE3/jMo8sP5OHaeRlaVI8qZkCWuPo1bi4/UnlTCdKVljA9ptg8hrV+hTsqAZCh3oo6YTOcdOETgPStXt6E7Nln9tzftX9ka3rXRtRxdb6CNlJNUbVblucAk+WWly2wWyNI103ea/B1+IaVcJ7cxBjcsjy+Ze1k0zpRFyk1LIJQO0HB1Z+zf9Vb1SfT1QPSG+gqZnHSszRdtVi/oq2Oc/VD0DJukUQjBBfAcluyXevYM/LoqsI+wExcq8USGCDU2U6w92LA0zwALzIHXEGNhBi+pc6hC52Z6yxcJ1ba0tDRgbY3BAzMRBFOL3Wwq8lFGqh9cR1+jbESE+QUliFPtzdC/KvR2YCU7XG79xZJxc0r0jWECK8TIGl4O2gViBUw4eKCLu5N0NeR9ZictPWme0P6/xoayn4m7j48R8qryjiFFgJSdQ4H8PRcrPuOKjCUWMc16+AGG8A1QTXZL2JULLOj0bMwq6CTaDrJHGbVJuipdFasQ7JwvgvY+CVaKXVQpv8m40/eEAY7HeE/dYZP0iHlP5VUkI4qh2lso0QXQ6ueR7jAnahepPF/Z0MFY5CVPwBKfU5gF1456pDDXEU71aZLhR2WEfpVjaVuWiM2WPY0Zdi3sJNRuYTZ6yMbjpfAMgFYQNShGCYzdFoNS+7t0r/M0Z2Pk2gxINUoUurfxfhQcQpDIcxpoVe9RV407tRoN4IbPI0+Azs5YEdZ0arn1G2w4gPoetAP99MADjZUkVWSkFnkiUGV9aquu/hNYvgkG7oQkJIbhqcWpIHDkkBrrxo6ffD52FX3ivHrhgKZ3ZRRj/reTRg2Id5/4C4mf4Fbs54V7s91Jyr/Ia5QOogPOWdZ8hrsMptxMcClsNxI/1Jn4GEZI3CYtBl1JwO50ILcAQAIDe8Rw2E7uWHL3/1Luw7nnVtWJisV0BoblTh3q4zqLw/WVxVf1+mwO4+qLNMVff3cJEXVPI+mKt2gqTzF0fHAGhRhgneLN5tf2oOP/9Fe/PxfbTN/YavZnu+2z6MzASmbpRM53dXu/tEPbP2DvwCja6TQMgQQ/aIopDs8GjbOWs9hwL0UfVXF1Q0+7M6juoZvCkgXCIDOAop2bD+20ed37cnPP7bt+5/aavnCNpNwnDGPFgLSqQJSPIqWbbT6BzZa+QYqr8ujsbV0EOXrM1WGiWk0ttFIJ3VkpHW+qHWSq8HHN7I8tHLdhB0iH621Xw1vPDepzq/6zUsQrj9XD5BEBXkhgxZLmnRksjSyeqnOeoY23n1q+d5TX9L3Gfp+m2MOnQnIuoIFwO1Hq7YX8eLPe2tCL7UAMaUCNZDBnijTAZChIG9y8KsdeqrcWv4MEVEH+y5M47lJyu+zfMWH6cjbCWkCfKF++oVEuC+kf+Sk/wQXANWVl1JXX7CbUTyiDk0hB7Q4kKocZcoWCqshC4qx3igoXAAKSN81QZwLrCoaMgpIBYrkmdXIeQ0/TEFKSDgveZB6vKyDEXFANZBi7fnoo/vqCXYw4tVwKopmFAxrvVj6hDaHFgbSE1WSJcshw/aFLatqIUQllERpFwHnvKlZx4XJK1rxtC21ngaSXM3umu2Po7MDiacu4B0dkIBfiLzP3oF4LC0M5Ds6md4BeU70DshzondAnguZ/T+ttMIFPkOwIQAAAABJRU5ErkJggg==;" parent="1" vertex="1">
          <mxGeometry x="311" y="367" width="51.83" height="48.67" as="geometry" />
        </mxCell>
        <mxCell id="eKK3N9lMVBsKYANuo7Ul-31" style="rounded=0;orthogonalLoop=1;jettySize=auto;html=1;" parent="1" source="eKK3N9lMVBsKYANuo7Ul-30" target="eKK3N9lMVBsKYANuo7Ul-2" edge="1">
          <mxGeometry relative="1" as="geometry" />
        </mxCell>
        <mxCell id="eKK3N9lMVBsKYANuo7Ul-30" value="Mobile&lt;div&gt;(React Native)&lt;/div&gt;" style="rounded=1;whiteSpace=wrap;html=1;" parent="1" vertex="1">
          <mxGeometry x="416.83" y="23" width="120" height="60" as="geometry" />
        </mxCell>
        <mxCell id="eKK3N9lMVBsKYANuo7Ul-32" value="Authentication" style="text;html=1;align=center;verticalAlign=middle;resizable=0;points=[];autosize=1;strokeColor=none;fillColor=none;" parent="1" vertex="1">
          <mxGeometry x="10" y="199" width="94" height="26" as="geometry" />
        </mxCell>
      </root>
    </mxGraphModel>
  </diagram>
</mxfile>
